#!OML:ASF F:\VICON\USERDATA\INSTALL\rory3\rory3.ASF
:FULLY-SPECIFIED
:DEGREES
1009
root 3.00852 28.0978 -2.29493 -166.902 -26.4444 180.946
lowerback 9.60586 -3.26568 -2.74005
upperback 2.62837 -4.71892 2.81522
thorax -2.17657 -2.43946 4.98821
lowerneck -13.3923 2.84169 -11.1894
upperneck 41.0293 1.03445 4.68592
head 17.0424 -2.10111 3.89369
rclavicle 1.26492e-014 -1.19084e-014
rhumerus -13.6006 25.7612 -82.3286
rradius 101.801
rwrist 57.8873
rhand -30.3599 -3.98743
rfingers 7.12502
rthumb -3.66506 -33.9357
lclavicle 1.26492e-014 -1.19084e-014
lhumerus 0.626675 -34.7585 84.5122
lradius 48.6011
lwrist -40.379
lhand -29.7262 29.6848
lfingers 7.12502
lthumb -3.05302 59.6427
rfemur -31.064 -6.04481 26.1005
rtibia 41.4743
rfoot -15.6777 3.38888
rtoes 9.51455
lfemur -33.3383 3.41369 -21.0548
ltibia 36.9519
lfoot -11.4511 -2.19961
ltoes -14.0701
1010
root 2.97035 28.1075 -2.28399 -166.775 -26.2445 180.812
lowerback 9.60209 -3.35819 -2.94545
upperback 2.55881 -4.85529 2.75552
thorax -2.22057 -2.50145 5.05744
lowerneck -13.3816 2.8885 -11.2282
upperneck 41.0086 1.15052 4.56782
head 17.0167 -2.0811 3.86221
rclavicle 3.61291e-014 -1.30204e-014
rhumerus -13.5784 25.8281 -82.3201
rradius 101.599
rwrist 57.7807
rhand -30.5914 -3.6433
rfingers 7.12502
rthumb -3.88861 -33.5876
lclavicle 3.61291e-014 -1.30204e-014
lhumerus 1.02329 -35.4798 84.092
lradius 47.5971
lwrist -41.3684
lhand -30.1388 28.6965
lfingers 7.12502
lthumb -3.45147 58.6483
rfemur -31.0802 -5.9484 25.7672
rtibia 41.24
rfoot -15.9697 3.43329
rtoes 8.02581
lfemur -33.2802 3.49032 -21.3985
ltibia 36.7617
lfoot -11.4043 -2.0472
ltoes -14.0715
1011
root 2.93133 28.1185 -2.27559 -166.657 -25.749 180.704
lowerback 9.53286 -3.39618 -3.2257
upperback 2.55309 -4.92967 2.69791
thorax -2.16164 -2.53817 5.15619
lowerneck -13.5568 3.15618 -11.2858
upperneck 41.1639 1.56063 4.61603
head 17.0932 -1.93534 3.96774
rclavicle 3.21037e-014 -3.03147e-015
rhumerus -13.4825 26.0906 -82.2532
rradius 101.526
rwrist 57.5298
rhand -31.0237 -2.84547
rfingers 7.12502
rthumb -4.30601 -32.7817
lclavicle 3.21037e-014 -3.03147e-015
lhumerus 1.3561 -36.0072 83.686
lradius 47.1006
lwrist -40.95
lhand -30.0979 28.4688
lfingers 7.12502
lthumb -3.412 58.4212
rfemur -31.1776 -5.41962 25.3479
rtibia 40.8962
rfoot -16.0984 3.43863
rtoes 7.40118
lfemur -33.1444 3.71775 -21.7018
ltibia 36.5492
lfoot -11.3732 -1.83847
ltoes -13.29
1012
root 2.89391 28.1184 -2.25871 -166.664 -25.5165 180.594
lowerback 9.72339 -3.52343 -3.37586
upperback 2.57336 -5.12154 2.62636
thorax -2.21762 -2.63292 5.1987
lowerneck -13.7522 3.29209 -11.4542
upperneck 41.1821 1.87545 4.58655
head 17.1135 -1.83947 4.03981
rclavicle 3.0911e-014 -2.45499e-014
rhumerus -13.1962 26.4104 -82.1851
rradius 101.331
rwrist 57.2029
rhand -31.4601 -2.44047
rfingers 7.12502
rthumb -4.72738 -32.3677
lclavicle 3.0911e-014 -2.45499e-014
lhumerus 1.79115 -36.3735 83.2055
lradius 46.3828
lwrist -41.1776
lhand -30.0854 27.9997
lfingers 7.12502
lthumb -3.39996 57.9524
rfemur -30.8471 -5.34982 25.074
rtibia 40.6695
rfoot -16.265 3.59975
rtoes 6.94324
lfemur -32.9971 3.8748 -22.082
ltibia 36.3086
lfoot -11.2768 -1.58622
ltoes -14.3177
1013
root 2.85497 28.117 -2.25293 -166.4 -25.1031 180.6
lowerback 9.42433 -3.57699 -3.51179
upperback 2.52227 -5.19097 2.59053
thorax -2.08937 -2.66645 5.22105
lowerneck -13.7914 3.24742 -11.6519
upperneck 41.0344 1.96649 4.42254
head 17.0356 -1.84356 4.00996
rclavicle 3.80176e-014 -1.0138e-014
rhumerus -12.7737 26.6551 -82.004
rradius 100.948
rwrist 56.7821
rhand -31.6931 -2.2859
rfingers 7.12502
rthumb -4.95238 -32.208
lclavicle 3.80176e-014 -1.0138e-014
lhumerus 2.19827 -36.7724 82.8417
lradius 45.6529
lwrist -41.2536
lhand -29.948 27.7077
lfingers 7.12502
lthumb -3.26723 57.6624
rfemur -31.0574 -4.89927 24.8227
rtibia 40.3686
rfoot -16.6439 3.78144
rtoes 6.4398
lfemur -33.0994 4.26032 -22.3576
ltibia 36.019
lfoot -11.2344 -1.49119
ltoes -14.2498
1014
root 2.81712 28.1231 -2.24499 -166.558 -24.6607 180.573
lowerback 9.60934 -3.55489 -3.75803
upperback 2.5476 -5.19441 2.53707
thorax -2.14742 -2.66772 5.31792
lowerneck -13.7513 3.31932 -11.696
upperneck 40.957 2.15635 4.25189
head 16.9648 -1.7937 3.96551
rclavicle -3.84648e-014 3.33958e-014
rhumerus -12.6227 26.7776 -81.9331
rradius 100.712
rwrist 56.5437
rhand -31.8988 -2.30342
rfingers 7.12502
rthumb -5.15099 -32.2208
lclavicle -3.84648e-014 3.33958e-014
lhumerus 2.45441 -37.2301 82.632
lradius 45.0629
lwrist -41.1647
lhand -30.1598 28.4045
lfingers 7.12502
lthumb -3.47174 58.3559
rfemur -30.4247 -4.48646 24.5537
rtibia 40.1726
rfoot -17.6463 3.87395
rtoes 5.2599
lfemur -32.6571 4.53486 -22.582
ltibia 35.7
lfoot -11.2801 -1.29702
ltoes -14.5706
1015
root 2.7782 28.132 -2.24002 -166.636 -23.8307 180.185
lowerback 9.83436 -3.32102 -4.48446
upperback 2.62431 -4.97054 2.36906
thorax -2.17002 -2.55747 5.54354
lowerneck -13.812 3.32531 -11.5538
upperneck 40.9346 2.23964 3.99194
head 16.9708 -1.77176 3.83539
rclavicle 7.60848e-014 -4.05521e-014
rhumerus -12.657 26.5901 -81.8985
rradius 100.697
rwrist 56.787
rhand -31.6964 -2.33272
rfingers 7.12502
rthumb -4.95562 -32.2548
lclavicle 7.60848e-014 -4.05521e-014
lhumerus 2.71826 -37.7277 82.5583
lradius 44.5501
lwrist -41.0285
lhand -30.7501 29.4992
lfingers 7.12502
lthumb -4.04186 59.4406
rfemur -30.074 -3.49117 23.6908
rtibia 39.9063
rfoot -18.189 4.49832
rtoes 6.38738
lfemur -32.0511 4.88156 -23.164
ltibia 35.3556
lfoot -11.4206 -0.924563
ltoes -14.5173
1016
root 2.72367 28.1423 -2.2484 -166.55 -22.655 180.033
lowerback 9.46334 -2.98939 -4.97006
upperback 2.72488 -4.5649 2.20381
thorax -1.88694 -2.36644 5.5719
lowerneck -14.0321 3.29792 -11.4247
upperneck 41.0564 2.25899 3.77884
head 17.1046 -1.78588 3.72549
rclavicle 1.18277e-014 8.54774e-015
rhumerus -12.6651 26.3219 -81.8606
rradius 100.696
rwrist 57.0849
rhand -31.3427 -2.26686
rfingers 7.12502
rthumb -4.61409 -32.1966
lclavicle 1.18277e-014 8.54774e-015
lhumerus 2.8907 -38.1195 82.5646
lradius 44.1973
lwrist -40.7696
lhand -31.2639 30.6567
lfingers 7.12502
lthumb -4.53797 60.5881
rfemur -29.8947 -2.60318 23.0915
rtibia 39.796
rfoot -18.8277 5.70485
rtoes 5.465
lfemur -31.6637 5.53401 -23.6017
ltibia 35.0177
lfoot -11.6838 -0.592896
ltoes -13.8856
1017
root 2.67914 28.1451 -2.24259 -166.402 -22.1185 180.059
lowerback 9.21362 -3.06429 -4.99181
upperback 2.68879 -4.65111 2.12356
thorax -1.78065 -2.40902 5.49008
lowerneck -14.1637 3.4828 -11.6301
upperneck 41.1222 2.5897 3.83776
head 17.1296 -1.68845 3.84537
rclavicle -2.83268e-014 7.55382e-015
rhumerus -12.5854 26.6545 -82.0282
rradius 100.444
rwrist 56.8243
rhand -31.6356 -1.88401
rfingers 7.12502
rthumb -4.89685 -31.8074
lclavicle -2.83268e-014 7.55382e-015
lhumerus 2.7155 -37.8201 82.5907
lradius 43.9324
lwrist -40.7552
lhand -31.3709 31.1798
lfingers 7.12502
lthumb -4.64126 61.109
rfemur -29.7067 -2.28288 22.8839
rtibia 39.7678
rfoot -19.4686 6.87927
rtoes 4.81855
lfemur -31.5176 5.78718 -23.7761
ltibia 34.5792
lfoot -11.7172 -0.526263
ltoes -12.8258
1018
root 2.64606 28.1389 -2.22593 -166.42 -21.6574 179.899
lowerback 9.4758 -3.10114 -5.31253
upperback 2.65491 -4.74517 2.03832
thorax -1.92893 -2.44983 5.61116
lowerneck -14.3185 3.64552 -11.8017
upperneck 41.2138 2.86872 3.91439
head 17.1798 -1.60687 3.96042
rclavicle -8.14023e-014 1.72943e-014
rhumerus -12.4952 26.9401 -82.1401
rradius 100.23
rwrist 56.5963
rhand -31.9276 -1.63111
rfingers 7.12502
rthumb -5.17886 -31.5478
lclavicle -8.14023e-014 1.72943e-014
lhumerus 2.68136 -37.5777 82.5532
lradius 43.6541
lwrist -40.6473
lhand -31.3569 30.9996
lfingers 7.12502
lthumb -4.62773 60.929
rfemur -29.2112 -2.03382 22.5455
rtibia 39.7966
rfoot -21.0623 7.11178
rtoes -3.44063
lfemur -31.2026 5.97365 -24.0818
ltibia 34.2186
lfoot -11.7464 -0.515011
ltoes -12.0672
